<svg width="2650" height="1297" viewBox="0 0 2650 1297" fill="none" xmlns="http://www.w3.org/2000/svg">
<path d="M1709.48 45L0 670.702L936.065 1296.75L2649.67 670.702L1709.48 45ZM311.736 670.702L1324.83 283.648L2337.93 670.702L1323.8 1057.24L311.736 670.702Z" fill="#F0F0F0"/>
<path d="M1322.78 1057.61L1085.67 670.727L1322.78 283.674L1564 670.727L1322.78 1057.61Z" fill="#F0F0F0"/>
<path d="M2246.7 25.038C2263.71 8.34599 2284.71 0 2309.68 0C2334.29 0 2355.29 8.34599 2372.66 25.038C2389.31 41.73 2398 62.0506 2398 86C2398 109.949 2389.31 130.27 2372.66 146.962C2355.29 163.654 2334.29 172 2309.68 172C2284.71 172 2263.71 163.654 2246.7 146.962C2229.33 130.27 2221 109.949 2221 86C2221 62.0506 2229.33 41.73 2246.7 25.038ZM2309.68 154.945C2329.59 154.945 2346.24 148.414 2359.63 134.987C2373.02 121.561 2379.9 105.232 2379.9 86C2379.9 66.7679 2373.02 50.4388 2359.63 36.6498C2346.24 23.5865 2329.59 16.692 2309.68 16.692C2289.41 16.692 2272.4 23.5865 2259.37 36.6498C2245.61 50.4388 2239.1 66.7679 2239.1 86C2239.1 105.232 2245.61 121.561 2259.37 134.987C2272.4 148.414 2289.41 154.945 2309.68 154.945ZM2344.07 103.418L2345.15 116.844C2345.15 122.287 2346.6 127.004 2349.5 130.996H2333.21C2331.04 128.093 2329.59 123.376 2329.59 116.844L2328.87 107.409C2328.14 102.329 2327.06 99.0633 2325.25 96.8861C2323.44 95.0717 2320.54 93.9831 2316.2 93.9831H2291.22V130.996H2275.29V38.827H2314.39C2324.52 38.827 2332.12 41.3671 2337.91 45.7215C2343.71 50.0759 2346.6 56.6076 2346.6 64.5907C2346.6 75.4768 2341.9 82.7342 2333.21 86.3629C2339.72 88.903 2343.34 94.7089 2344.07 103.418ZM2291.22 79.4684H2315.83C2325.25 79.4684 2330.31 75.1139 2330.31 66.4051C2330.31 57.6962 2324.88 53.3418 2314.39 53.3418H2291.22V79.4684Z" fill="white"/>
</svg>
