<svg width="54" height="54" viewBox="0 0 54 54" fill="none" xmlns="http://www.w3.org/2000/svg">
<path d="M15.4667 0H37.8667C46.4 0 53.3333 6.93333 53.3333 15.4667V37.8667C53.3333 41.9687 51.7038 45.9027 48.8033 48.8033C45.9027 51.7038 41.9687 53.3333 37.8667 53.3333H15.4667C6.93333 53.3333 0 46.4 0 37.8667V15.4667C0 11.3647 1.62952 7.43064 4.53008 4.53008C7.43064 1.62952 11.3647 0 15.4667 0ZM14.9333 5.33333C12.3873 5.33333 9.94546 6.34476 8.14511 8.14511C6.34476 9.94546 5.33333 12.3873 5.33333 14.9333V38.4C5.33333 43.7067 9.62667 48 14.9333 48H38.4C40.9461 48 43.3879 46.9886 45.1882 45.1882C46.9886 43.3879 48 40.9461 48 38.4V14.9333C48 9.62667 43.7067 5.33333 38.4 5.33333H14.9333ZM40.6667 9.33333C41.5507 9.33333 42.3986 9.68452 43.0237 10.3096C43.6488 10.9348 44 11.7826 44 12.6667C44 13.5507 43.6488 14.3986 43.0237 15.0237C42.3986 15.6488 41.5507 16 40.6667 16C39.7826 16 38.9348 15.6488 38.3096 15.0237C37.6845 14.3986 37.3333 13.5507 37.3333 12.6667C37.3333 11.7826 37.6845 10.9348 38.3096 10.3096C38.9348 9.68452 39.7826 9.33333 40.6667 9.33333ZM26.6667 13.3333C30.2029 13.3333 33.5943 14.7381 36.0948 17.2386C38.5952 19.7391 40 23.1304 40 26.6667C40 30.2029 38.5952 33.5943 36.0948 36.0948C33.5943 38.5952 30.2029 40 26.6667 40C23.1304 40 19.7391 38.5952 17.2386 36.0948C14.7381 33.5943 13.3333 30.2029 13.3333 26.6667C13.3333 23.1304 14.7381 19.7391 17.2386 17.2386C19.7391 14.7381 23.1304 13.3333 26.6667 13.3333ZM26.6667 18.6667C24.5449 18.6667 22.5101 19.5095 21.0098 21.0098C19.5095 22.5101 18.6667 24.5449 18.6667 26.6667C18.6667 28.7884 19.5095 30.8232 21.0098 32.3235C22.5101 33.8238 24.5449 34.6667 26.6667 34.6667C28.7884 34.6667 30.8232 33.8238 32.3235 32.3235C33.8238 30.8232 34.6667 28.7884 34.6667 26.6667C34.6667 24.5449 33.8238 22.5101 32.3235 21.0098C30.8232 19.5095 28.7884 18.6667 26.6667 18.6667Z" fill="white"/>
</svg>
