<svg width="54" height="54" viewBox="0 0 54 54" fill="none" xmlns="http://www.w3.org/2000/svg">
<path d="M45.3333 7.76014C42.8882 5.29109 39.9761 3.33339 36.7667 2.00111C33.5573 0.668833 30.1149 -0.0113685 26.64 0.00014372C12.08 0.00014372 0.213334 11.8668 0.213334 26.4268C0.213334 31.0935 1.44 35.6268 3.73333 39.6268L0 53.3335L14 49.6535C17.8667 51.7601 22.2133 52.8801 26.64 52.8801C41.2 52.8801 53.0667 41.0135 53.0667 26.4535C53.0667 19.3868 50.32 12.7468 45.3333 7.76014ZM26.64 48.4001C22.6933 48.4001 18.8267 47.3335 15.44 45.3335L14.64 44.8535L6.32 47.0401L8.53333 38.9335L8 38.1068C5.80679 34.6056 4.64247 30.5582 4.64 26.4268C4.64 14.3201 14.5067 4.45348 26.6133 4.45348C32.48 4.45348 38 6.74681 42.1333 10.9068C44.1803 12.9438 45.8025 15.3669 46.9057 18.0357C48.0089 20.7044 48.5712 23.5657 48.56 26.4535C48.6133 38.5601 38.7467 48.4001 26.64 48.4001ZM38.6933 31.9735C38.0267 31.6535 34.7733 30.0535 34.1867 29.8135C33.5733 29.6001 33.1467 29.4935 32.6933 30.1335C32.24 30.8001 30.9867 32.2935 30.6133 32.7201C30.24 33.1735 29.84 33.2268 29.1733 32.8801C28.5067 32.5601 26.3733 31.8401 23.8667 29.6001C21.8933 27.8401 20.5867 25.6801 20.1867 25.0135C19.8133 24.3468 20.1333 24.0001 20.48 23.6535C20.7733 23.3601 21.1467 22.8801 21.4667 22.5068C21.7867 22.1335 21.92 21.8401 22.1333 21.4135C22.3467 20.9601 22.24 20.5868 22.08 20.2668C21.92 19.9468 20.5867 16.6935 20.0533 15.3601C19.52 14.0801 18.96 14.2401 18.56 14.2135H17.28C16.8267 14.2135 16.1333 14.3735 15.52 15.0401C14.9333 15.7068 13.2267 17.3068 13.2267 20.5601C13.2267 23.8135 15.6 26.9601 15.92 27.3868C16.24 27.8401 20.5867 34.5068 27.2 37.3601C28.7733 38.0535 30 38.4535 30.96 38.7468C32.5333 39.2535 33.9733 39.1735 35.12 39.0135C36.4 38.8268 39.04 37.4135 39.5733 35.8668C40.1333 34.3201 40.1333 33.0135 39.9467 32.7201C39.76 32.4268 39.36 32.2935 38.6933 31.9735Z" fill="white"/>
</svg>
